<svg xmlns="http://www.w3.org/2000/svg" fill="#E1E1E1" version="1" viewBox="0 0 320 575"><path d="M258 233c-39-50-84-86-140-118-14-8-43-27-62-24-22 3-39 29-27 53 8 16 32 24 51 35 19 10 88 57 98 76a159 159 0 0 0-95 19 167 167 0 0 0-50 42c-14 18-34 58-33 89h66c1-32 4-54 30-62 13-4 28 0 38 5 16 8 21 16 28 20l18-15c11-6 22-13 36-12 12 1 21 8 23 10 14 11 17 27 18 33l1 18c-3 36-29 73-57 93-55 39-102-13-122-50l-76-1c1 20 14 45 23 59l10 14c1 1 12 14 26 25 34 25 74 32 74 32 10 1 36 4 66-5 45-11 79-43 98-76 47-85 3-202-42-260zm-92-120c50 30 102 80 132 133-1-34-44-120-61-150-10-20-45-84-66-93-15-6-31-2-41 8-27 28 3 56 23 88 6 9 4 8 13 14zm101-19c16 31 30 66 41 99 3 8 9 29 12 34V48l-3-11c-10-18-41-29-58-15-10 7-15 21-13 33l4 10c7 17 17 29 17 29z"/></svg>