<svg xmlns="http://www.w3.org/2000/svg" fill="#E92E67" viewBox="0 0 456.5 210.6"><path d="M76.2 51.2c-4.6-2.6-13.7-8.5-19.6-7.6-6.9 1-12.5 9.1-8.7 16.7 2.6 5.1 10.2 7.7 16.1 11 6.2 3.4 27.8 18 30.9 24a52.4 52.4 0 0 0-38.5 11.9 49.5 49.5 0 0 0-17.5 35.3l20.6.1c.3-10 1.5-16.8 9.7-19.4 4-1.3 8.8 0 12 1.6 4.9 2.5 6.5 5.1 8.6 6.2 2.2-2.2 4.3-3.6 5.8-4.5 3.4-2.1 6.9-4.2 11.5-3.8 3.8.4 6.4 2.3 7.2 2.9 4.4 3.5 5.4 8.5 5.7 10.6.4 2.1.3 4 .2 5.7a43.4 43.4 0 0 1-17.8 29.3c-17.3 12.3-32.4-4.1-38.7-15.8l-23.9-.1c.5 6.1 4.5 14.1 7.4 18.5 1.5 2.3 3.1 4.2 3.2 4.4.3.3 3.6 4.3 8.2 7.8a56.7 56.7 0 0 0 23.2 10 50.9 50.9 0 0 0 51.7-25.3c15.1-26.9.9-63.8-13.3-82.2a138.3 138.3 0 0 0-44-37.3zm15.1-.8a129 129 0 0 1 41.8 42c-.4-10.5-14-37.7-19.2-47.3-3.3-6.2-14.4-26.6-20.9-29.2-4.7-1.9-9.8-.6-12.8 2.5-8.9 8.7.8 17.6 7.1 27.7 1.8 2.9 1.2 2.6 4 4.3zm26.4-15.1c2.5 5.5 5.4 9.4 5.4 9.4 5.1 9.6 9.7 20.7 13.1 31 .9 2.6 2.7 9.3 3.7 10.9V30.1a10 10 0 0 0-1-3.4c-3-5.7-12.8-9.2-18.4-4.8-3 2.3-4.6 6.6-4 10.2l1.2 3.2zm92.2 113.6c7.8-3.4 11.7-9.1 11.7-17 0-5-1.6-9.1-4.9-12.3-4.5-4.5-11.4-6.7-20.6-6.7h-38.8v75.7h39.1a35 35 0 0 0 21.1-5.5c5.1-3.7 7.6-8.7 7.6-15.2 0-5.1-1.3-9.1-3.9-12.1a27.2 27.2 0 0 0-11.3-6.9zm-32.1-19.4h13.6c3.1 0 5.4.6 7.1 1.7s2.4 2.8 2.4 4.9c0 4.6-3.3 6.9-9.9 6.9h-13.2v-13.5zm23.6 40.7a12.3 12.3 0 0 1-7.4 1.9h-16.2v-14.3h16c3.4 0 6 .6 7.7 1.9a6 6 0 0 1 2.6 5.1c-.1 2.3-1 4.1-2.7 5.4zm88.8-38.8h22.7v57.2h21v-57.2h22.7v-18.5h-66.4zm127.4-18.5l-17.2 48-17.2-48h-23.5l30.7 76.3h19.5l30.7-76.3zM14.4 193.5h16.2v-82.8H14.4z"/></svg>